Genre:Romance | Thriller | War
Language: English  http://www.imdb.com/title/tt1490726/
Source:BluRay.x264-AVCHD

General
Complete name :Kandahar.Break.2009.BRRip.XviD.Ac3.Feel-Free
Format : AVI
Format/Info : Audio Video Interleave
File size : 1.17 GiB
Duration : 1h 34mn
Overall bit rate : 1 771 Kbps
Video #0
Codec ID : XVID
Codec ID/Hint : XviD
Duration : 1h 34mn
Bit rate : 1 505 Kbps
Width : 652 pixels
Height : 352 pixels
Display aspect ratio : 1.852
Frame rate : 24.000 fps
Resolution : 24 bits
Colorimetry : 4:2:0
Scan type : Progressive
Bits/(Pixel*Frame) : 0.273
Stream size : 1 017 MiB (85%)
Writing library : XviD 1.2.1 (UTC 2008-12-04)
Audio #1
ID : 1
Format : AC-3
Format/Info : Audio Coding 3
Codec ID : 2000
Duration : 1h 34mn
Bit rate mode : Constant
Bit rate : 256 Kbps
Channel(s) : 6 channels
Channel positions : Front: L C R, Surround: L R, LFE
Sampling rate : 48.0 KHz
Stream size : 173 MiB (14%)
Alignment : Split accross interleaves
Interleave, duration : 42 ms (1.00 video frame)
Interleave, preload duration : 500 ms

Plot
in 1999, a British mine clearance engineer working for the Taliban government in Afghanistan must flee the country when he becomes embroiled in a deadly game of intrigue and betrayal
